<mxfile host="www.draw.io" modified="2020-02-27T17:13:28.638Z" agent="Mozilla/5.0 (Macintosh; Intel Mac OS X 10_15_0) AppleWebKit/537.36 (KHTML, like Gecko) Chrome/80.0.3987.122 Safari/537.36" etag="XnzYbDgdts0IeO7ZFWq7" version="12.7.9" type="github">
  <diagram name="Page-1" id="03018318-947c-dd8e-b7a3-06fadd420f32">
    <mxGraphModel dx="1426" dy="826" grid="1" gridSize="10" guides="1" tooltips="1" connect="1" arrows="1" fold="1" page="1" pageScale="1" pageWidth="1100" pageHeight="850" background="#ffffff" math="0" shadow="0">
      <root>
        <mxCell id="0" />
        <mxCell id="1" parent="0" />
        <mxCell id="677b7b8949515195-1" value="" style="whiteSpace=wrap;html=1;rounded=0;shadow=0;labelBackgroundColor=none;strokeColor=#82b366;strokeWidth=1;fillColor=#d5e8d4;fontFamily=Verdana;fontSize=12;align=center;comic=1;" parent="1" vertex="1">
          <mxGeometry x="20" y="20" width="360" height="570" as="geometry" />
        </mxCell>
        <mxCell id="677b7b8949515195-2" value="&lt;font color=&quot;#ff0000&quot;&gt;Golf Guys&lt;/font&gt;" style="whiteSpace=wrap;html=1;rounded=0;shadow=0;labelBackgroundColor=none;strokeWidth=1;fontFamily=Verdana;fontSize=28;align=center;comic=1;fillColor=#fff2cc;strokeColor=#d6b656;" parent="1" vertex="1">
          <mxGeometry x="40" y="60" width="190" height="50" as="geometry" />
        </mxCell>
        <mxCell id="677b7b8949515195-8" value="" style="whiteSpace=wrap;html=1;rounded=0;shadow=0;labelBackgroundColor=none;strokeWidth=1;fillColor=none;fontFamily=Verdana;fontSize=12;align=center;comic=1;" parent="1" vertex="1">
          <mxGeometry x="30" y="170" width="330" height="320" as="geometry" />
        </mxCell>
        <mxCell id="677b7b8949515195-9" value="" style="line;strokeWidth=1;html=1;rounded=0;shadow=0;labelBackgroundColor=none;fillColor=none;fontFamily=Verdana;fontSize=14;fontColor=#000000;align=center;comic=1;" parent="1" vertex="1">
          <mxGeometry x="20" y="140" width="360" height="10" as="geometry" />
        </mxCell>
        <mxCell id="677b7b8949515195-27" value="&lt;font style=&quot;font-size: 16px&quot;&gt;User 1&lt;/font&gt;" style="text;html=1;points=[];align=left;verticalAlign=top;spacingTop=-4;fontSize=14;fontFamily=Verdana" parent="1" vertex="1">
          <mxGeometry x="40" y="195" width="70" height="30" as="geometry" />
        </mxCell>
        <mxCell id="677b7b8949515195-28" value="User 2" style="text;html=1;points=[];align=left;verticalAlign=top;spacingTop=-4;fontSize=14;fontFamily=Verdana" parent="1" vertex="1">
          <mxGeometry x="40" y="350" width="170" height="20" as="geometry" />
        </mxCell>
        <mxCell id="677b7b8949515195-29" value="User 3" style="text;html=1;points=[];align=left;verticalAlign=top;spacingTop=-4;fontSize=14;fontFamily=Verdana" parent="1" vertex="1">
          <mxGeometry x="40" y="385" width="170" height="20" as="geometry" />
        </mxCell>
        <mxCell id="677b7b8949515195-30" value="User 4" style="text;html=1;points=[];align=left;verticalAlign=top;spacingTop=-4;fontSize=14;fontFamily=Verdana" parent="1" vertex="1">
          <mxGeometry x="40" y="421" width="170" height="20" as="geometry" />
        </mxCell>
        <mxCell id="677b7b8949515195-39" value="User 5" style="text;html=1;points=[];align=left;verticalAlign=top;spacingTop=-4;fontSize=14;fontFamily=Verdana" parent="1" vertex="1">
          <mxGeometry x="40" y="457" width="170" height="20" as="geometry" />
        </mxCell>
        <mxCell id="0AJK569UGjD89cMr1nSS-1" value="" style="html=1;verticalLabelPosition=bottom;align=center;labelBackgroundColor=#ffffff;verticalAlign=top;strokeWidth=2;strokeColor=#0080F0;shadow=0;dashed=0;shape=mxgraph.ios7.icons.options;pointerEvents=1" vertex="1" parent="1">
          <mxGeometry x="300" y="70" width="50" height="30" as="geometry" />
        </mxCell>
        <mxCell id="0AJK569UGjD89cMr1nSS-3" value="About" style="text;html=1;points=[];align=left;verticalAlign=top;spacingTop=-4;fontSize=14;fontFamily=Verdana" vertex="1" parent="1">
          <mxGeometry x="50" y="520" width="60" height="20" as="geometry" />
        </mxCell>
        <mxCell id="0AJK569UGjD89cMr1nSS-4" value="LinkedIn" style="text;html=1;points=[];align=left;verticalAlign=top;spacingTop=-4;fontSize=14;fontFamily=Verdana" vertex="1" parent="1">
          <mxGeometry x="120" y="520" width="60" height="20" as="geometry" />
        </mxCell>
        <mxCell id="0AJK569UGjD89cMr1nSS-5" value="GitHub" style="text;html=1;points=[];align=left;verticalAlign=top;spacingTop=-4;fontSize=14;fontFamily=Verdana" vertex="1" parent="1">
          <mxGeometry x="200" y="520" width="60" height="20" as="geometry" />
        </mxCell>
        <mxCell id="0AJK569UGjD89cMr1nSS-6" value="Careers" style="text;html=1;points=[];align=left;verticalAlign=top;spacingTop=-4;fontSize=14;fontFamily=Verdana" vertex="1" parent="1">
          <mxGeometry x="270" y="520" width="60" height="20" as="geometry" />
        </mxCell>
        <mxCell id="0AJK569UGjD89cMr1nSS-7" value="" style="whiteSpace=wrap;html=1;rounded=0;shadow=0;labelBackgroundColor=none;strokeWidth=1;fillColor=none;fontFamily=Verdana;fontSize=12;align=center;comic=1;" vertex="1" parent="1">
          <mxGeometry x="40" y="230" width="310" height="120" as="geometry" />
        </mxCell>
        <mxCell id="0AJK569UGjD89cMr1nSS-8" value="Player" style="text;html=1;points=[];align=left;verticalAlign=top;spacingTop=-4;fontSize=14;fontFamily=Verdana" vertex="1" parent="1">
          <mxGeometry x="50" y="242.5" width="60" height="20" as="geometry" />
        </mxCell>
        <mxCell id="0AJK569UGjD89cMr1nSS-9" value="Todays &lt;br&gt;Score" style="text;html=1;points=[];align=left;verticalAlign=top;spacingTop=-4;fontSize=14;fontFamily=Verdana" vertex="1" parent="1">
          <mxGeometry x="140" y="235" width="60" height="35" as="geometry" />
        </mxCell>
        <mxCell id="0AJK569UGjD89cMr1nSS-10" value="Total &lt;br&gt;Score" style="text;html=1;points=[];align=left;verticalAlign=top;spacingTop=-4;fontSize=14;fontFamily=Verdana" vertex="1" parent="1">
          <mxGeometry x="260" y="235" width="60" height="35" as="geometry" />
        </mxCell>
        <mxCell id="0AJK569UGjD89cMr1nSS-11" value="Player" style="text;html=1;points=[];align=left;verticalAlign=top;spacingTop=-4;fontSize=14;fontFamily=Verdana" vertex="1" parent="1">
          <mxGeometry x="50" y="280" width="60" height="20" as="geometry" />
        </mxCell>
        <mxCell id="0AJK569UGjD89cMr1nSS-12" value="Todays &lt;br&gt;Score" style="text;html=1;points=[];align=left;verticalAlign=top;spacingTop=-4;fontSize=14;fontFamily=Verdana" vertex="1" parent="1">
          <mxGeometry x="140" y="272.5" width="60" height="35" as="geometry" />
        </mxCell>
        <mxCell id="0AJK569UGjD89cMr1nSS-13" value="Total &lt;br&gt;Score" style="text;html=1;points=[];align=left;verticalAlign=top;spacingTop=-4;fontSize=14;fontFamily=Verdana" vertex="1" parent="1">
          <mxGeometry x="260" y="272.5" width="60" height="35" as="geometry" />
        </mxCell>
        <mxCell id="0AJK569UGjD89cMr1nSS-14" value="Player" style="text;html=1;points=[];align=left;verticalAlign=top;spacingTop=-4;fontSize=14;fontFamily=Verdana" vertex="1" parent="1">
          <mxGeometry x="50" y="320" width="60" height="20" as="geometry" />
        </mxCell>
        <mxCell id="0AJK569UGjD89cMr1nSS-15" value="Todays &lt;br&gt;Score" style="text;html=1;points=[];align=left;verticalAlign=top;spacingTop=-4;fontSize=14;fontFamily=Verdana" vertex="1" parent="1">
          <mxGeometry x="140" y="312.5" width="60" height="35" as="geometry" />
        </mxCell>
        <mxCell id="0AJK569UGjD89cMr1nSS-16" value="Total &lt;br&gt;Score" style="text;html=1;points=[];align=left;verticalAlign=top;spacingTop=-4;fontSize=14;fontFamily=Verdana" vertex="1" parent="1">
          <mxGeometry x="260" y="312.5" width="60" height="35" as="geometry" />
        </mxCell>
        <mxCell id="0AJK569UGjD89cMr1nSS-18" value="" style="whiteSpace=wrap;html=1;rounded=0;shadow=0;labelBackgroundColor=none;strokeColor=#82b366;strokeWidth=1;fillColor=#d5e8d4;fontFamily=Verdana;fontSize=12;align=center;comic=1;" vertex="1" parent="1">
          <mxGeometry x="410" y="20" width="360" height="570" as="geometry" />
        </mxCell>
        <mxCell id="0AJK569UGjD89cMr1nSS-19" value="Golf Guys" style="whiteSpace=wrap;html=1;rounded=0;shadow=0;labelBackgroundColor=none;strokeWidth=1;fontFamily=Verdana;fontSize=28;align=center;comic=1;fillColor=#fff2cc;strokeColor=#d6b656;" vertex="1" parent="1">
          <mxGeometry x="430" y="60" width="190" height="50" as="geometry" />
        </mxCell>
        <mxCell id="0AJK569UGjD89cMr1nSS-20" value="" style="whiteSpace=wrap;html=1;rounded=0;shadow=0;labelBackgroundColor=none;strokeWidth=1;fillColor=#dae8fc;fontFamily=Verdana;fontSize=12;align=center;comic=1;strokeColor=#6c8ebf;" vertex="1" parent="1">
          <mxGeometry x="450" y="20" width="320" height="570" as="geometry" />
        </mxCell>
        <mxCell id="0AJK569UGjD89cMr1nSS-21" value="" style="line;strokeWidth=1;html=1;rounded=0;shadow=0;labelBackgroundColor=none;fillColor=none;fontFamily=Verdana;fontSize=14;fontColor=#000000;align=center;comic=1;" vertex="1" parent="1">
          <mxGeometry x="410" y="140" width="360" height="10" as="geometry" />
        </mxCell>
        <mxCell id="0AJK569UGjD89cMr1nSS-27" value="" style="html=1;verticalLabelPosition=bottom;align=center;labelBackgroundColor=#ffffff;verticalAlign=top;strokeWidth=2;strokeColor=#0080F0;shadow=0;dashed=0;shape=mxgraph.ios7.icons.options;pointerEvents=1" vertex="1" parent="1">
          <mxGeometry x="470" y="70" width="50" height="30" as="geometry" />
        </mxCell>
        <mxCell id="0AJK569UGjD89cMr1nSS-28" value="&lt;font style=&quot;font-size: 30px&quot; color=&quot;#ff0000&quot;&gt;About&lt;/font&gt;" style="text;html=1;points=[];align=left;verticalAlign=top;spacingTop=-4;fontSize=14;fontFamily=Verdana" vertex="1" parent="1">
          <mxGeometry x="562.5" y="285" width="95" height="50" as="geometry" />
        </mxCell>
        <mxCell id="0AJK569UGjD89cMr1nSS-29" value="&lt;font style=&quot;font-size: 30px&quot; color=&quot;#ff0000&quot;&gt;LinkedIn&lt;/font&gt;" style="text;html=1;points=[];align=left;verticalAlign=top;spacingTop=-4;fontSize=14;fontFamily=Verdana" vertex="1" parent="1">
          <mxGeometry x="542.5" y="365" width="135" height="45" as="geometry" />
        </mxCell>
        <mxCell id="0AJK569UGjD89cMr1nSS-30" value="&lt;font style=&quot;font-size: 30px&quot; color=&quot;#ff0000&quot;&gt;GitHub&lt;/font&gt;" style="text;html=1;points=[];align=left;verticalAlign=top;spacingTop=-4;fontSize=14;fontFamily=Verdana" vertex="1" parent="1">
          <mxGeometry x="555" y="445" width="110" height="37.5" as="geometry" />
        </mxCell>
        <mxCell id="0AJK569UGjD89cMr1nSS-31" value="&lt;font style=&quot;font-size: 30px&quot; color=&quot;#ff0000&quot;&gt;Careers&lt;/font&gt;" style="text;html=1;points=[];align=left;verticalAlign=top;spacingTop=-4;fontSize=14;fontFamily=Verdana" vertex="1" parent="1">
          <mxGeometry x="555" y="520" width="120" height="40" as="geometry" />
        </mxCell>
        <mxCell id="0AJK569UGjD89cMr1nSS-32" value="&lt;font style=&quot;font-size: 30px&quot; color=&quot;#ff0000&quot;&gt;Tournament Scores&lt;/font&gt;" style="text;html=1;points=[];align=left;verticalAlign=top;spacingTop=-4;fontSize=14;fontFamily=Verdana" vertex="1" parent="1">
          <mxGeometry x="453.75" y="195" width="322.5" height="45" as="geometry" />
        </mxCell>
      </root>
    </mxGraphModel>
  </diagram>
</mxfile>
